<svg aria-hidden="true" viewBox="0 0 64 64" fill="currentColor" xmlns="http://www.w3.org/2000/svg">
  <path d="M7.148 6v52a3 3 0 0 0 3 3h43.704a3 3 0 0 0 3-3V6a3 3 0 0 0-3-3H10.148a3 3 0 0 0-3 3Zm47.704 50v2a1 1 0 0 1-1 1H10.148a1 1 0 0 1-1-1v-2h45.704Zm-8.392-15H49a1 1 0 0 0 1-1v-6a1 1 0 0 0-1-1h-2.54c-1.753-6.339-7.566-11-14.46-11-8.279 0-15 6.721-15 15 0 8.279 6.721 15 15 15 6.894 0 12.707-4.661 14.46-11Zm-5.227 0A10.034 10.034 0 0 1 32 47.061c-5.553 0-10.061-4.508-10.061-10.061 0-5.553 4.508-10.061 10.061-10.061 4.132 0 7.685 2.496 9.233 6.061h3.139C42.684 27.78 37.78 24 32 24c-7.175 0-13 5.825-13 13s5.825 13 13 13c5.78 0 10.684-3.78 12.372-9h-3.139Zm-2.191-7.924A8.034 8.034 0 0 0 32 28.939c-4.449 0-8.061 3.612-8.061 8.061 0 4.449 3.612 8.061 8.061 8.061a8.024 8.024 0 0 0 7.042-4.137A4 4 0 0 1 35.822 37c0-1.941 1.386-3.561 3.22-3.924ZM48 35h-8.178a2 2 0 0 0 0 4H48v-4ZM28 8a1 1 0 0 0-1-1H12a1 1 0 0 0-1 1v7a1 1 0 0 0 1 1h15a1 1 0 0 0 1-1V8Zm21.5.5A3.5 3.5 0 1 0 53 12a3.5 3.5 0 0 0-3.5-3.5Zm-9 0A3.5 3.5 0 1 0 44 12a3.5 3.5 0 0 0-3.5-3.5ZM13 9h13v5H13V9Zm36.5 1.5a1.5 1.5 0 1 1-1.5 1.5 1.5 1.5 0 0 1 1.5-1.5Zm-9 0A1.5 1.5 0 1 1 39 12a1.5 1.5 0 0 1 1.5-1.5Z"/>
</svg>
